<svg id="Icons" xmlns="http://www.w3.org/2000/svg" viewBox="0 0 512 512"><defs><style>.cls-1{fill:#b82065;}.cls-2{fill:#d7156f;}.cls-3{fill:#aacfe5;}.cls-4{fill:#cde6f6;}.cls-5{fill:#eef9ff;}.cls-6{fill:#f39e22;}.cls-7{fill:#f9c744;}.cls-8{fill:#fff;}</style></defs><title>019-beer-export</title><circle class="cls-1" cx="256" cy="256" r="255.98"/><path class="cls-2" d="M0,255.76A255.63,255.63,0,0,1,103.44,50.44c113.54-84.25,273.87-60.52,358.12,53a254.76,254.76,0,0,1,49.93,136,76.89,76.89,0,0,0-14.24,6.88c-23.84,14.74-42,41.9-69.91,44.44-19.15,1.75-37.29-9.24-51.1-22.62s-24.87-29.51-39.4-42.12a112.53,112.53,0,0,0-157.7,10c-14.17,15.89-26.53,37.44-47.68,40-28.75,3.44-51.22-31.63-80-28.95-9.3.87-17.72,5.66-26.73,8A54.5,54.5,0,0,1,0,255.76Z"/><path class="cls-3" d="M330.57,77.48H181.43a13.16,13.16,0,0,0-13.16,13.16V246.92A27.43,27.43,0,0,0,178,267.85l20,17a27.46,27.46,0,0,1,9.59,23.32l-12,137.18a15.8,15.8,0,0,0,15.75,17.18h89.48a15.8,15.8,0,0,0,15.75-17.18l-12-137.18a27.46,27.46,0,0,1,9.59-23.32l20-17a27.43,27.43,0,0,0,9.69-20.93V90.64A13.16,13.16,0,0,0,330.57,77.48Z"/><path class="cls-4" d="M343.72,90.63v156.3a27.44,27.44,0,0,1-9.67,20.92l-20,17a27.46,27.46,0,0,0-9.59,23.32l12,137.18a15.81,15.81,0,0,1-15.75,17.18H231.57a15.8,15.8,0,0,1-15.74-17.18l11.93-147.4a27.43,27.43,0,0,0-9.58-23.32l-20-17a27.45,27.45,0,0,1-9.69-20.93l.08-146.07a13.15,13.15,0,0,1,13.15-13.15H330.57A13.15,13.15,0,0,1,343.72,90.63Z"/><rect class="cls-5" x="323.42" y="107.28" width="20.31" height="58.92" rx="10.15"/><rect class="cls-5" x="323.42" y="176.28" width="20.31" height="36.44" rx="10.15"/><path class="cls-6" d="M323.42,77.48H188.58V236.77a27.48,27.48,0,0,0,9.69,20.93l19.91,16.9a27.46,27.46,0,0,1,9.57,23.48L215.93,424.92a15.8,15.8,0,0,0,15.74,17.27h48.66a15.8,15.8,0,0,0,15.74-17.27L284.25,298.08a27.46,27.46,0,0,1,9.57-23.48l19.91-16.9a27.48,27.48,0,0,0,9.69-20.93Z"/><ellipse class="cls-7" cx="295.87" cy="142.38" rx="17.62" ry="33.13"/><ellipse class="cls-7" cx="295.87" cy="203.05" rx="10.99" ry="20.67"/><path class="cls-8" d="M323.42,77.46v0H188.58a18.51,18.51,0,0,1,25-17.37,18.53,18.53,0,0,1,36.91-.4,28.76,28.76,0,0,1,32.14-2.13,14.35,14.35,0,1,1,28,5.62A14.35,14.35,0,0,1,323.42,77.46Z"/><circle class="cls-8" cx="239.76" cy="82.52" r="7.99"/><circle class="cls-8" cx="257.96" cy="127.11" r="7.99"/><circle class="cls-8" cx="230.43" cy="156.57" r="9.5"/><circle class="cls-8" cx="263.63" cy="170.38" r="12.29"/><circle class="cls-8" cx="214.51" cy="107.28" r="12.29"/><circle class="cls-8" cx="292.99" cy="86.81" r="12.29"/><circle class="cls-8" cx="263.99" cy="315.43" r="7.99"/><circle class="cls-8" cx="270.33" cy="246.4" r="7.99"/><circle class="cls-8" cx="271.99" cy="395.64" r="7.99"/><circle class="cls-8" cx="249.28" cy="277.98" r="7.99"/><circle class="cls-8" cx="214.65" cy="201.91" r="7.99"/><circle class="cls-8" cx="245.96" cy="367.12" r="10.3"/></svg>